<svg id="icons" xmlns="http://www.w3.org/2000/svg" viewBox="0 0 48 48"><title>postcard</title><g id="postcard"><rect x="36" y="17" width="6" height="6" fill="#60deae"/><path d="M46,13V43H2V13H46ZM42,23V17H36v6Z" fill="#fff"/><polygon points="39 5 39 13 2 13 39 5" fill="#ffd259"/><polygon points="39 13 46 13 46 43 2 43 2 13 39 13" fill="none" stroke="#423e5e" stroke-linecap="round" stroke-linejoin="round" stroke-width="2"/><rect x="36" y="17" width="6" height="6" fill="none" stroke="#423e5e" stroke-linecap="round" stroke-linejoin="round" stroke-width="2"/><polyline points="39 13 39 5 2 13" fill="none" stroke="#423e5e" stroke-linecap="round" stroke-linejoin="round" stroke-width="2"/><line x1="24" y1="16" x2="24" y2="40" fill="none" stroke="#423e5e" stroke-miterlimit="10" stroke-width="2"/><line x1="28" y1="29" x2="42" y2="29" fill="none" stroke="#423e5e" stroke-miterlimit="10" stroke-width="2"/><line x1="28" y1="37" x2="34" y2="37" fill="none" stroke="#423e5e" stroke-miterlimit="10" stroke-width="2"/><line x1="36" y1="37" x2="42" y2="37" fill="none" stroke="#423e5e" stroke-miterlimit="10" stroke-width="2"/><line x1="28" y1="33" x2="42" y2="33" fill="none" stroke="#423e5e" stroke-miterlimit="10" stroke-width="2"/><line x1="6" y1="37" x2="20" y2="37" fill="none" stroke="#423e5e" stroke-linejoin="round" stroke-width="2"/><line x1="13" y1="32" x2="13" y2="30.6" fill="none" stroke="#423e5e" stroke-linecap="round" stroke-linejoin="round" stroke-width="2"/><line x1="13" y1="19.4" x2="13" y2="18" fill="none" stroke="#423e5e" stroke-linecap="round" stroke-linejoin="round" stroke-width="2"/><line x1="6" y1="25" x2="7.4" y2="25" fill="none" stroke="#423e5e" stroke-linecap="round" stroke-linejoin="round" stroke-width="2"/><line x1="18.6" y1="25" x2="20" y2="25" fill="none" stroke="#423e5e" stroke-linecap="round" stroke-linejoin="round" stroke-width="2"/><line x1="8.05" y1="29.95" x2="9.04" y2="28.96" fill="none" stroke="#423e5e" stroke-linecap="round" stroke-linejoin="round" stroke-width="2"/><line x1="16.96" y1="21.04" x2="17.95" y2="20.05" fill="none" stroke="#423e5e" stroke-linecap="round" stroke-linejoin="round" stroke-width="2"/><line x1="8.05" y1="20.05" x2="9.04" y2="21.04" fill="none" stroke="#423e5e" stroke-linecap="round" stroke-linejoin="round" stroke-width="2"/><line x1="16.96" y1="28.96" x2="17.95" y2="29.95" fill="none" stroke="#423e5e" stroke-linecap="round" stroke-linejoin="round" stroke-width="2"/><circle cx="13" cy="25" r="2.5" fill="#ffd259"/><circle cx="13" cy="25" r="2.5" fill="none" stroke="#423e5e" stroke-linecap="round" stroke-linejoin="round" stroke-width="2"/></g></svg>